# xmcd
#
# Track frame offsets:
#	150
#	18750
#	33160
#	48905
#	61342
#	76837
#	96640
#	115722
#	137910
#	156140
#	172037
#	186452
#	210325
#
# Disc length: 3034 seconds
#
# Revision: 0
# Processed by: cddbd v1.4PL0 Copyright (c) Steve Scherf et al.
# Submitted via: audiograbber 1.81.03
#
DISCID=a70bd80d
DTITLE=Eric Clapton - Standing Around Crying [CD 1)
DYEAR=1994
DGENRE=
TTITLE0=Motherless Child
TTITLE1=Malted Milk
TTITLE2=How Long
TTITLE3=Kidman Blues
TTITLE4=Country Jail
TTITLE5="44"
TTITLE6=Blues Leave Me Alone
TTITLE7=Standing Around Crying
TTITLE8=Hoochie Coochie Man
TTITLE9=It Hurts Me too
TTITLE10=Blues Before Sunrise
TTITLE11=Third Degree
TTITLE12=Reconsider Baby
EXTD=
EXTT0=
EXTT1=
EXTT2=
EXTT3=
EXTT4=
EXTT5=
EXTT6=
EXTT7=
EXTT8=
EXTT9=
EXTT10=
EXTT11=
EXTT12=
PLAYORDER=
